HIERARCHY
ROOT Hips
{
	OFFSET -14.64140 90.27770 -84.91600
	CHANNELS 6 Xposition Yposition Zposition Zrotation Xrotation Yrotation
	JOINT Spine
	{
		OFFSET 0.00000 13.20850 -1.60436
		CHANNELS 3 Zrotation Xrotation Yrotation
		JOINT Spine1
		{
			OFFSET 0.00000 8.61716 0.00000
			CHANNELS 3 Zrotation Xrotation Yrotation
			JOINT Spine2
			{
				OFFSET 0.00000 8.61717 0.00000
				CHANNELS 3 Zrotation Xrotation Yrotation
				JOINT Spine3
				{
					OFFSET 0.00000 8.61717 0.00000
					CHANNELS 3 Zrotation Xrotation Yrotation
					JOINT Neck
					{
						OFFSET 0.00000 11.07920 1.10792
						CHANNELS 3 Zrotation Xrotation Yrotation
						JOINT Neck1
						{
							OFFSET 0.00000 7.08032 0.00000
							CHANNELS 3 Zrotation Xrotation Yrotation
							JOINT Head
							{
								OFFSET 0.00000 7.08031 0.00000
								CHANNELS 3 Zrotation Xrotation Yrotation
								End site
								{
									OFFSET 0.00000 0.00000 0.00000
								}
							}
						}
					}
					JOINT RightShoulder
					{
						OFFSET -0.01000 7.91373 5.19711
						CHANNELS 3 Zrotation Xrotation Yrotation
						JOINT RightArm
						{
							OFFSET -18.41580 0.00000 0.00000
							CHANNELS 3 Zrotation Xrotation Yrotation
							JOINT RightForeArm
							{
								OFFSET -29.11090 0.00000 0.00000
								CHANNELS 3 Zrotation Xrotation Yrotation
								JOINT RightHand
								{
									OFFSET -24.65040 0.00000 0.00000
									CHANNELS 3 Zrotation Xrotation Yrotation
									JOINT RightHandThumb1
									{
										OFFSET -5.35114 -0.85590 3.97906
										CHANNELS 3 Zrotation Xrotation Yrotation
										JOINT RightHandThumb2
										{
											OFFSET -4.52789 0.00000 0.00000
											CHANNELS 3 Zrotation Xrotation Yrotation
											JOINT RightHandThumb3
											{
												OFFSET -2.46976 0.00000 0.00000
												CHANNELS 3 Zrotation Xrotation Yrotation
												End site
												{
													OFFSET 0.00000 0.00000 0.00000
												}
											}
										}
									}
									JOINT RightHandIndex1
									{
										OFFSET -14.26970 0.00000 2.88139
										CHANNELS 3 Zrotation Xrotation Yrotation
										JOINT RightHandIndex2
										{
											OFFSET -5.48836 0.00000 0.00000
											CHANNELS 3 Zrotation Xrotation Yrotation
											JOINT RightHandIndex3
											{
												OFFSET -3.01859 0.00000 0.00000
												CHANNELS 3 Zrotation Xrotation Yrotation
												End site
												{
													OFFSET 0.00000 0.00000 0.00000
												}
											}
										}
									}
									JOINT RightHandMiddle1
									{
										OFFSET -14.26970 0.00000 -0.09147
										CHANNELS 3 Zrotation Xrotation Yrotation
										JOINT RightHandMiddle2
										{
											OFFSET -6.17441 0.00000 0.00000
											CHANNELS 3 Zrotation Xrotation Yrotation
											JOINT RightHandMiddle3
											{
												OFFSET -3.56743 0.00000 0.00000
												CHANNELS 3 Zrotation Xrotation Yrotation
												End site
												{
													OFFSET 0.00000 0.00000 0.00000
												}
											}
										}
									}
									JOINT RightHandRing1
									{
										OFFSET -12.69180 0.00000 -3.06433
										CHANNELS 3 Zrotation Xrotation Yrotation
										JOINT RightHandRing2
										{
											OFFSET -5.62556 0.00000 0.00000
											CHANNELS 3 Zrotation Xrotation Yrotation
											JOINT RightHandRing3
											{
												OFFSET -3.56744 0.00000 0.00000
												CHANNELS 3 Zrotation Xrotation Yrotation
												End site
												{
													OFFSET 0.00000 0.00000 0.00000
												}
											}
										}
									}
									JOINT RightHandPinky1
									{
										OFFSET -11.11390 0.00000 -6.03719
										CHANNELS 3 Zrotation Xrotation Yrotation
										JOINT RightHandPinky2
										{
											OFFSET -4.52789 0.00000 0.00000
											CHANNELS 3 Zrotation Xrotation Yrotation
											JOINT RightHandPinky3
											{
												OFFSET -2.46976 0.00000 0.00000
												CHANNELS 3 Zrotation Xrotation Yrotation
												End site
												{
													OFFSET 0.00000 0.00000 0.00000
												}
											}
										}
									}
								}
							}
						}
					}
					JOINT LeftShoulder
					{
						OFFSET 0.01000 7.91373 5.19711
						CHANNELS 3 Zrotation Xrotation Yrotation
						JOINT LeftArm
						{
							OFFSET 18.41580 0.00000 0.00000
							CHANNELS 3 Zrotation Xrotation Yrotation
							JOINT LeftForeArm
							{
								OFFSET 29.11090 0.00000 0.00000
								CHANNELS 3 Zrotation Xrotation Yrotation
								JOINT LeftHand
								{
									OFFSET 24.65040 0.00000 0.00000
									CHANNELS 3 Zrotation Xrotation Yrotation
									JOINT LeftHandThumb1
									{
										OFFSET 5.35114 -0.85590 3.97906
										CHANNELS 3 Zrotation Xrotation Yrotation
										JOINT LeftHandThumb2
										{
											OFFSET 4.52789 0.00000 0.00000
											CHANNELS 3 Zrotation Xrotation Yrotation
											JOINT LeftHandThumb3
											{
												OFFSET 2.46977 0.00000 0.00000
												CHANNELS 3 Zrotation Xrotation Yrotation
												End site
												{
													OFFSET 0.00000 0.00000 0.00000
												}
											}
										}
									}
									JOINT LeftHandIndex1
									{
										OFFSET 14.26970 0.00000 2.88139
										CHANNELS 3 Zrotation Xrotation Yrotation
										JOINT LeftHandIndex2
										{
											OFFSET 5.48836 0.00000 0.00000
											CHANNELS 3 Zrotation Xrotation Yrotation
											JOINT LeftHandIndex3
											{
												OFFSET 3.01859 0.00000 0.00000
												CHANNELS 3 Zrotation Xrotation Yrotation
												End site
												{
													OFFSET 0.00000 0.00000 0.00000
												}
											}
										}
									}
									JOINT LeftHandMiddle1
									{
										OFFSET 14.26970 0.00000 -0.09147
										CHANNELS 3 Zrotation Xrotation Yrotation
										JOINT LeftHandMiddle2
										{
											OFFSET 6.17440 0.00000 0.00000
											CHANNELS 3 Zrotation Xrotation Yrotation
											JOINT LeftHandMiddle3
											{
												OFFSET 3.56744 0.00000 0.00000
												CHANNELS 3 Zrotation Xrotation Yrotation
												End site
												{
													OFFSET 0.00000 0.00000 0.00000
												}
											}
										}
									}
									JOINT LeftHandRing1
									{
										OFFSET 12.69180 0.00000 -3.06433
										CHANNELS 3 Zrotation Xrotation Yrotation
										JOINT LeftHandRing2
										{
											OFFSET 5.62556 0.00000 0.00000
											CHANNELS 3 Zrotation Xrotation Yrotation
											JOINT LeftHandRing3
											{
												OFFSET 3.56744 0.00000 0.00000
												CHANNELS 3 Zrotation Xrotation Yrotation
												End site
												{
													OFFSET 0.00000 0.00000 0.00000
												}
											}
										}
									}
									JOINT LeftHandPinky1
									{
										OFFSET 11.11390 0.00000 -6.03719
										CHANNELS 3 Zrotation Xrotation Yrotation
										JOINT LeftHandPinky2
										{
											OFFSET 4.52789 0.00000 0.00000
											CHANNELS 3 Zrotation Xrotation Yrotation
											JOINT LeftHandPinky3
											{
												OFFSET 2.46976 0.00000 0.00000
												CHANNELS 3 Zrotation Xrotation Yrotation
												End site
												{
													OFFSET 0.00000 0.00000 0.00000
												}
											}
										}
									}
								}
							}
						}
					}
					JOINT pCube4
					{
						OFFSET 0.00000 10.91090 1.10792
						CHANNELS 3 Zrotation Xrotation Yrotation
						End site
						{
							OFFSET 0.00000 0.00000 0.00000
						}
					}
				}
			}
		}
	}
	JOINT RightUpLeg
	{
		OFFSET -9.98441 0.00000 0.00000
		CHANNELS 3 Zrotation Xrotation Yrotation
		JOINT RightLeg
		{
			OFFSET 0.00000 -42.11790 0.00000
			CHANNELS 3 Zrotation Xrotation Yrotation
			JOINT RightFoot
			{
				OFFSET 0.00000 -45.00020 -0.00001
				CHANNELS 3 Zrotation Xrotation Yrotation
				JOINT RightForeFoot
				{
					OFFSET 0.00000 -3.74820 0.00000
					CHANNELS 3 Zrotation Xrotation Yrotation
					JOINT RightToeBase
					{
						OFFSET 0.00000 0.06325 14.43120
						CHANNELS 3 Zrotation Xrotation Yrotation
						End site
						{
							OFFSET 0.00000 0.00000 0.00000
						}
					}
				}
			}
		}
	}
	JOINT LeftUpLeg
	{
		OFFSET 9.98441 0.00000 0.00000
		CHANNELS 3 Zrotation Xrotation Yrotation
		JOINT LeftLeg
		{
			OFFSET 0.00000 -42.11800 0.00000
			CHANNELS 3 Zrotation Xrotation Yrotation
			JOINT LeftFoot
			{
				OFFSET 0.00000 -45.00070 0.00000
				CHANNELS 3 Zrotation Xrotation Yrotation
				JOINT LeftForeFoot
				{
					OFFSET 0.00000 -3.74824 0.00000
					CHANNELS 3 Zrotation Xrotation Yrotation
					JOINT LeftToeBase
					{
						OFFSET 0.00000 0.06325 14.43110
						CHANNELS 3 Zrotation Xrotation Yrotation
						End site
						{
							OFFSET 0.00000 0.00000 0.00000
						}
					}
				}
			}
		}
	}
}
MOTION
Frames: 4
Frame Time: 0.050000
0.014987744765775537 -0.04573856361201441 -0.035868350185833196 0.014804990399950618 0.03359448607245764 0.013938542424739315 4.456774692400141 3.045982627104697 -2.094138103002379 -0.7060087519566011 3.591126924038768 0.3827028681174878 -0.69947763442804 -1.268407161612356 0.7240793347293544 -0.36208028595807906 -0.5106204562916744 -0.3537806947775714 0.21759861045814125 13.28934565690073 -2.0205393434859915 0.4302141131213604 -0.008082024943711071 -4.626542815379993 1.1548263797054699 -16.019733868985472 -0.4471661405254263 -11.124518980993292 3.7742211979038505 -17.105876643066 78.43373863645222 -4.114184874891489 19.92668222782828 11.485833196809223 3.8715688354608657 80.34712201839261 13.160380262027171 -0.2646903235595366 -1.5778958840361719 4.479770075314347 -0.11253467779602346 -1.638297892364124 0.0412158537637009 0.014974506218349861 -56.184874374628755 -0.003118406855770364 0.0009723002665038497 -56.23395249958354 -38.772940700315445 0.013649612422085592 0.01187210492826907 -8.814577794669855e-05 -0.023282051525034972 -0.01115491996084976 0.04814583695911125 0.040618868406054706 -0.04614937713351262 -36.67579492906499 -0.021956694968013626 -0.016287921932020877 -0.019862924569469143 -0.017001030063870635 -0.04524074059404415 -0.033751249513112425 -0.03787434652416012 0.023561296952621612 -19.722472773191413 0.003073382770556091 0.020300844712151114 -0.0351933607134158 -0.04107571142530767 0.021595948866643382 -0.020139521058090037 0.04063628737510139 -0.02718010296549689 24.061424336331413 0.02888789652433774 0.018973067393986832 28.824949114394247 -0.04904890686953912 0.008455109118547532 28.90263803114283 -0.010160368836835233 0.03178099590554319 11.087559946286328 2.63545439820235 14.463582603956436 -69.8859875934587 12.311156615797584 -22.920535895641997 -5.25386499031067 -1.3663929994520554 -84.35615434898965 -15.406571640941447 -0.38379545963144157 -2.1938245719896847 -0.4844733937326197 0.05213795842772994 -8.124503787249761 0.03146226285858131 -0.004498474525354872 44.58506389779732 -0.01856635740501555 0.02857514086862163 44.59162751210195 12.465668553744813 0.010691401513777446 -0.012969424849537213 0.0014365646720557812 -0.020472274585103444 -0.04324306016007226 -0.039071388784608654 -0.02106351739618904 0.022951824508517002 11.133327447046225 -0.03110260455487547 0.024752147350300117 -0.024473747173504017 0.00619069670253765 -0.014543745731923189 0.04465091189809239 0.018020443158376635 0.011799448666394964 4.782097091498534 -0.020212057868835738 0.01054191914477342 -0.009996157789609052 0.04329880132388135 -0.008058095254702509 0.03614968544254495 -0.002951668808964901 0.02793356274728903 -5.594884921008305 -0.04953738926862706 -0.03636937496804368 -6.678803256933125 -0.01080970264172713 -0.03533736407740828 -6.720243468504243 0.029162509111893567 -0.03233567782382219 -0.002340285960572675 -0.04077236257571361 -0.02110876849250593 8.03978918734811 3.480066136866179 -19.20296570711905 -0.007595652224515596 10.400767688380945 0.04909728354903278 -5.632153382513439 -15.623171276948462 3.2181327917866165 -0.04390446855305661 0.04662303055436855 0.028710385490705575 -0.021162530574579567 4.674599719114758 -0.040660659015388116 12.414688996886957 -8.20305785211863 6.8940975056470455 0.01738851614777538 46.34385500784281 -0.018235917009052582 -4.307587161910161 -14.712048736149235 -3.833051961440589 0.03510633244140797 0.010298812259472758 0.030911611950316935 -0.021409951793247783 -10.745381129415803 0.04459852658601596 
-0.0024498749120302338 -0.00041903521335551 -0.011127340209581286 -0.02741118879552634 0.04028199810134694 -0.03210596490681324 4.534991339521479 2.781315968914537 -2.122878559831055 -0.7370883749437089 3.5718727904874426 0.34845801687442274 -0.7063297827728295 -1.382096608671522 0.6414184881084589 -0.4672311764906162 -0.5587880836327653 -0.3056129384078973 0.14116278832615342 13.75887087488333 -1.7266577186260188 0.4429745201169599 0.20414389989673087 -3.816017813171072 1.079091628031423 -15.72509994431558 -0.29478004688938353 -11.785556878094603 3.957935516264874 -16.85088397854694 78.72878435439513 -5.10845734765049 24.273359449702546 13.49730909625551 3.3220902986781047 84.62959336333081 12.308255339777487 -0.3296262158796124 -1.5192724379213853 4.521037055378578 -0.13794827059913878 -1.630202510722449 -0.01056112919278757 0.017047798541811734 -56.23253481229294 0.029752180937904212 -0.03722037471385994 -56.22069331835238 -38.749118539635944 -0.0030773965931090237 0.022202381885697547 -0.015799927929559282 -0.013441103242018157 -0.040540641782900476 -0.0017758079807372357 -0.03499095735165082 0.013952804053367025 -36.718542769707405 -0.036046457332144746 -0.020218630774976817 0.034628068273123584 0.0253434035726531 -0.04552966987990624 0.028298988359561177 0.03472254263090612 -0.02275743950883266 -19.78387306986897 0.035684608767459464 -0.013855285511688206 0.03310508183102534 0.01048033024636205 -0.011231910230066998 -0.00029286611309189254 0.036822149269159846 0.022999306887261407 24.053077836770502 0.0024638463908284395 -0.04524468575091334 28.843694993414978 0.003742708957698728 -0.03811825744670248 28.86484384830737 0.0010244638382648438 0.029612885661875997 11.903295871138184 2.711577607519879 14.319547020570143 -70.04857231396885 12.032723332767318 -27.538967338597264 -3.9623520302747326 -3.1810585951609305 -89.34001145978469 -13.500685242168757 0.13144025947126928 -3.1532932220618433 -0.4643363964232339 0.08586220927127935 -8.107097949035921 0.028224960573249674 0.02778171402114165 44.51814472571376 -0.008100125422798768 -0.03138472004809806 44.569656660214235 12.478776939274733 0.019785713025832666 -0.0008894510968123321 -0.02841287280670176 0.009440841524685552 -0.03181468057658024 -0.0359991481732452 0.006662380028257618 -0.009554695724832037 11.150237600838949 0.034916974610601566 -0.00829908480677406 -0.03327452939838118 0.046929104328473505 -0.0077645901004599685 0.02541841852379243 0.0028636152895967766 0.022936393457216372 4.7332893630316475 0.01890497768113108 -0.03744386610673593 -0.00751377266857861 -0.008611346298016303 -0.006505684154865712 -0.047113601623893275 0.01306438692046994 0.042830339919534374 -5.573627575812178 -0.0006704456007848178 -0.025916049718229063 -6.718550769080837 0.01640381856628234 -0.020744850581080884 -6.715248350837439 -0.008110235396988597 -0.016260519471936057 -0.048279522116604794 -0.03255689358993845 -0.009974062898853586 8.042016211137325 3.4601606060958177 -19.251943325562877 0.00271260512332952 10.394979033941887 0.05124482705419696 -5.610453094295122 -15.643939606609171 3.1509060719611632 0.01871625090685134 0.010283008504820477 -0.01856875240115354 0.022140024010840555 4.723567429802261 0.014358375024727235 12.455738134242663 -8.239167642473339 6.903148894263732 0.033086312518538954 46.357314961051806 -0.0254919238836029 -4.297684909361521 -14.76392551500309 -3.798518433191709 -0.012722826026015054 0.02269600887913152 0.009357458590019083 0.007657659852496465 -10.789194942133634 -0.03800108456819489 
0.04133187940212518 -0.004366661958872176 -0.01736906303489367 0.0428817784923167 -0.013820759671724437 -0.013349422521371713 4.580491016963544 2.61028995546338 -2.1599723704278158 -0.7566365068798381 3.5284490280434175 0.40196488557053606 -0.6397359787578044 -1.4640316691075654 0.5673021230454061 -0.5316428689478218 -0.6112785872751088 -0.3293192153129111 0.016284588009683618 13.98718046864334 -1.4515087262554625 0.4424660732309256 0.32961732570197494 -3.0148273155344696 0.9442530480720875 -15.509296520017601 -0.29899585112044574 -12.073493642433972 4.057570278922055 -16.626819594105864 78.89760566509635 -5.520336968714428 27.075157971262175 14.139774016265646 2.814826268991312 87.10016396780041 11.719232729349024 -0.2379423801818448 -1.324118883493577 4.535001817384815 -0.12585873930957295 -1.6075208524503692 -0.03085501425109958 -0.021518546453510264 -56.23761782060275 0.009685298302089666 0.03698239252651112 -56.27451687749559 -38.72855506205077 -0.01330080369186711 0.009322794515443674 0.02674740103268115 -0.02506378979487727 0.04890656080418156 0.029071835305055818 0.0024679820279267994 0.003995744706363983 -36.66732945499553 0.0015954349393417075 -0.001325230218929838 0.010250812519195218 -0.014442294339665752 -0.026589381396793135 0.02034635280133657 0.018508622968105636 -0.04319192928281147 -19.79777117517892 0.02748297878444085 0.004406483239096823 0.002600755695395829 -0.0071948702164302296 -0.01404191009823926 0.04201213064880474 -0.01965188863545667 -0.037866725944021726 24.021096587736707 0.009568507365361318 0.038827929394448936 28.815957097077632 0.012414798814362077 0.02431961780183001 28.852148609500894 -0.031363380455001054 -0.006244411764497192 12.615660174961333 2.911328660500541 14.190409748048829 -70.15264354650353 11.66691214330527 -31.859411343051647 -2.1713416498955858 -4.568568286018342 -92.73926233816347 -11.652750018409016 0.939530388521895 -4.3719270551969815 -0.4617922775467787 0.066393248448931 -8.103647224917378 0.034668415442061486 0.03075597308716354 44.61254534260205 0.047107939274015305 0.04680064161739335 44.57873546041164 12.460945567902153 -0.03725500894943486 0.04050731435047211 -0.00587103400330968 -0.04950005865058969 -0.007399911542811473 0.03777310288755924 -0.042221277809988446 -0.006582362639844068 11.086021179466583 -0.011157735490542471 -0.020647647710211468 0.015516177178948482 0.0027053233818954904 0.014452868547866036 -0.03325158829205486 -0.03164644462225287 -0.016039327219866693 4.820331319831172 -0.040044056212219875 0.021562285836733495 -0.030639872987290772 -0.02858158491426138 0.004303413377754933 -0.0012510444787939517 -0.0011216229655747203 -0.01873914068659014 -5.561506717094028 -0.042776022631111715 0.002920208452270915 -6.755922638756713 -0.00821653112713762 0.004160134638380067 -6.716055832704529 -0.015930500503715972 -0.02660375080375949 0.017934193358075997 0.04113082086368991 -0.005300233035202515 8.014318272471742 3.4803504223097015 -19.17562129422018 -0.0173000550711849 10.356174472983284 0.030238609380453613 -5.6411038385748675 -15.709481178554642 3.1590843629932595 -0.01188284409716518 -0.0028520677018142957 -0.041242421144148424 -0.03156078994480076 4.739315933895666 -0.02394334976667251 12.496046907505313 -8.231531838447914 6.855229207375248 -0.009714938825721954 46.34375578633997 -0.02230841745015823 -4.299965813167518 -14.713343842545024 -3.7943313222664368 -0.003901572016179143 -0.01318142317100994 -0.02932296151015856 -0.004072275865791635 -10.75715598761393 -0.012563471178393426 
2.5906172086106777e-05 0.04346384519197724 -0.03270117005453579 0.008275805311856867 -0.03050982244702477 0.03685042235076632 4.660660629894492 2.4767097197371846 -2.1634479646073217 -0.6826775619726388 3.463728784062094 0.33958998611436547 -0.6465892010488759 -1.451053998612596 0.38326860475139574 -0.6127230713538148 -0.5450964246635508 -0.299767378703334 -0.01056621686037959 14.270053692495315 -1.2645048848373084 0.412304382947358 0.5035787835381285 -2.3648074166926816 0.9275261777512689 -15.218352810929728 -0.2106121222755884 -12.141040694529984 4.087536386730356 -16.37932980994302 79.06569217397221 -4.90423120534083 29.066543129822723 13.419094018821859 2.3092457104834643 88.7952077685572 11.08399918116599 -0.27076099072859383 -1.01734269142488 4.536570061895892 -0.12520322044973992 -1.5457730009022737 -0.012394943448689563 -0.035918571706172214 -56.25051090020143 -0.03970597348933709 0.04516982707383995 -56.24209890748225 -38.760293502220456 0.04492885328234305 -0.007968992510475075 0.03651123165617704 -0.023935978005684942 -0.031254556890488686 0.03627933085904227 -0.023197299663259067 -0.028255920464570972 -36.713574871970195 0.03921911526986498 0.0179577324675169 0.03726559055011347 0.015158785000923129 -0.04798449786667633 0.004449768785038685 0.04027190596014726 0.030692110217203153 -19.750873910702232 -0.03521434775990246 0.003639925711142075 0.023962827936250517 0.010310649500605997 -0.012720997472006364 0.023807717896242427 0.005162406836932717 0.015466444078412684 24.069047707011116 0.020688100482677347 -0.04721420894346809 28.874539626964697 -0.04037381969105455 -0.024885037520504496 28.897664404195762 -0.02020233615457442 0.034946357044736344 13.06048779947793 2.9445693419030965 13.96672711817613 -70.63415542484988 11.760920153115839 -36.20622371155016 0.5387925132453608 -5.895569461961682 -95.18775686227491 -9.935192449195275 2.095668208686455 -5.594301824147821 -0.46361121914359005 0.04454844892873723 -8.09693916695411 0.020981956265479485 -0.02626092140940804 44.54815354008706 0.021822481247758447 -0.04459923615809537 44.577558070972366 12.446785765940687 0.04000191137703463 0.0030843292893707004 -2.428759742547016e-06 0.036912195488657 0.0037163802680918894 -0.002787670684308086 -0.016977022047802662 0.040216087829471135 11.107702580769443 -0.010346040277120518 -0.005076438275780563 0.04601718509179585 -0.010112749034806176 -0.025814952440961724 -0.02054062466582932 0.02596504047379671 -0.04673849059980358 4.77650777399652 -0.012812251905157739 0.03543508148850192 -0.03643786151621571 0.017695212217625902 -0.007917039998245884 -0.02413338392404325 0.01625968268822931 -0.0075547068045419335 -5.585608896699637 0.03697485836023907 -0.0038334071145579565 -6.68483168620591 0.008228283457427125 -0.03125426975631228 -6.705038874415963 0.019864108470810972 0.016174008781634868 -0.046932150172303094 -0.01770585904042974 -0.025430017722147494 8.019074299122943 3.4584778142823276 -19.216827245651736 0.004348133352616686 10.422895652813875 0.01702272983409709 -5.612218739156111 -15.689670821535831 3.22407407190995 -0.029837752330488517 -0.04195587755318094 0.03954254909016087 -0.028357616868557766 4.730991189313719 0.003681187556247289 12.471238513846094 -8.242894219514078 6.899099822935257 -0.043041617659636947 46.404443643795794 0.0022436638272616428 -4.322130957119816 -14.77640930666717 -3.8578093313205852 0.034382617082876446 -0.032730522550452903 0.00867200249976329 -0.009821682689909638 -10.750955690168023 0.03538282564112812 
